<mxfile host="app.diagrams.net" agent="Mozilla/5.0 (Macintosh; Intel Mac OS X 10_15_7) AppleWebKit/537.36 (KHTML, like Gecko) Chrome/132.0.0.0 Safari/537.36" version="26.0.7">
  <diagram name="Page-1" id="adHUv5XNcQoTTug45oy2">
    <mxGraphModel dx="836" dy="532" grid="1" gridSize="10" guides="1" tooltips="1" connect="1" arrows="0" fold="1" page="1" pageScale="1" pageWidth="827" pageHeight="1169" math="0" shadow="0">
      <root>
        <mxCell id="0" />
        <mxCell id="1" parent="0" />
        <mxCell id="1RfGCbZmdzBSN7ZpFKU0-4" value="" style="rounded=0;whiteSpace=wrap;html=1;" vertex="1" parent="1">
          <mxGeometry x="370" y="160" width="100" height="40" as="geometry" />
        </mxCell>
        <mxCell id="1RfGCbZmdzBSN7ZpFKU0-5" value="" style="rounded=0;whiteSpace=wrap;html=1;" vertex="1" parent="1">
          <mxGeometry x="380" y="170" width="100" height="40" as="geometry" />
        </mxCell>
        <mxCell id="1RfGCbZmdzBSN7ZpFKU0-6" value="" style="rounded=0;whiteSpace=wrap;html=1;" vertex="1" parent="1">
          <mxGeometry x="390" y="180" width="100" height="40" as="geometry" />
        </mxCell>
        <mxCell id="1RfGCbZmdzBSN7ZpFKU0-7" value="" style="rounded=0;whiteSpace=wrap;html=1;" vertex="1" parent="1">
          <mxGeometry x="580" y="170" width="100" height="40" as="geometry" />
        </mxCell>
        <mxCell id="1RfGCbZmdzBSN7ZpFKU0-24" value="" style="group" vertex="1" connectable="0" parent="1">
          <mxGeometry x="520" y="70" width="150" height="40" as="geometry" />
        </mxCell>
        <mxCell id="1RfGCbZmdzBSN7ZpFKU0-9" value="" style="rounded=0;whiteSpace=wrap;html=1;" vertex="1" parent="1RfGCbZmdzBSN7ZpFKU0-24">
          <mxGeometry width="150" height="40" as="geometry" />
        </mxCell>
        <mxCell id="1RfGCbZmdzBSN7ZpFKU0-23" value="Contenuto_multimediale" style="text;html=1;align=center;verticalAlign=middle;resizable=0;points=[];autosize=1;strokeColor=none;fillColor=none;" vertex="1" parent="1RfGCbZmdzBSN7ZpFKU0-24">
          <mxGeometry y="5" width="150" height="30" as="geometry" />
        </mxCell>
        <mxCell id="1RfGCbZmdzBSN7ZpFKU0-26" value="" style="group" vertex="1" connectable="0" parent="1">
          <mxGeometry x="620" y="254" width="100" height="40" as="geometry" />
        </mxCell>
        <mxCell id="1RfGCbZmdzBSN7ZpFKU0-8" value="" style="rounded=0;whiteSpace=wrap;html=1;" vertex="1" parent="1RfGCbZmdzBSN7ZpFKU0-26">
          <mxGeometry width="100" height="40" as="geometry" />
        </mxCell>
        <mxCell id="1RfGCbZmdzBSN7ZpFKU0-25" value="Risposta" style="text;html=1;align=center;verticalAlign=middle;resizable=0;points=[];autosize=1;strokeColor=none;fillColor=none;" vertex="1" parent="1RfGCbZmdzBSN7ZpFKU0-26">
          <mxGeometry x="15" y="6" width="70" height="30" as="geometry" />
        </mxCell>
        <mxCell id="1RfGCbZmdzBSN7ZpFKU0-27" value="" style="group" vertex="1" connectable="0" parent="1">
          <mxGeometry x="450" y="330" width="100" height="40" as="geometry" />
        </mxCell>
        <mxCell id="1RfGCbZmdzBSN7ZpFKU0-11" value="" style="rounded=0;whiteSpace=wrap;html=1;" vertex="1" parent="1RfGCbZmdzBSN7ZpFKU0-27">
          <mxGeometry width="100" height="40" as="geometry" />
        </mxCell>
        <mxCell id="1RfGCbZmdzBSN7ZpFKU0-16" value="Interazione" style="text;html=1;align=center;verticalAlign=middle;whiteSpace=wrap;rounded=0;" vertex="1" parent="1RfGCbZmdzBSN7ZpFKU0-27">
          <mxGeometry x="20" y="5" width="60" height="30" as="geometry" />
        </mxCell>
        <mxCell id="1RfGCbZmdzBSN7ZpFKU0-28" value="" style="group" vertex="1" connectable="0" parent="1">
          <mxGeometry x="200" y="360" width="110" height="40" as="geometry" />
        </mxCell>
        <mxCell id="1RfGCbZmdzBSN7ZpFKU0-3" value="" style="rounded=0;whiteSpace=wrap;html=1;" vertex="1" parent="1RfGCbZmdzBSN7ZpFKU0-28">
          <mxGeometry width="110" height="40" as="geometry" />
        </mxCell>
        <mxCell id="1RfGCbZmdzBSN7ZpFKU0-14" value="Profilo_utente" style="text;html=1;align=center;verticalAlign=middle;whiteSpace=wrap;rounded=0;" vertex="1" parent="1RfGCbZmdzBSN7ZpFKU0-28">
          <mxGeometry x="25" y="5" width="60" height="30" as="geometry" />
        </mxCell>
        <mxCell id="1RfGCbZmdzBSN7ZpFKU0-30" value="" style="group" vertex="1" connectable="0" parent="1">
          <mxGeometry x="80" y="260" width="90" height="40" as="geometry" />
        </mxCell>
        <mxCell id="1RfGCbZmdzBSN7ZpFKU0-1" value="" style="rounded=0;whiteSpace=wrap;html=1;" vertex="1" parent="1RfGCbZmdzBSN7ZpFKU0-30">
          <mxGeometry width="90" height="40" as="geometry" />
        </mxCell>
        <mxCell id="1RfGCbZmdzBSN7ZpFKU0-29" value="Utente" style="text;html=1;align=center;verticalAlign=middle;resizable=0;points=[];autosize=1;strokeColor=none;fillColor=none;container=1;" vertex="1" parent="1RfGCbZmdzBSN7ZpFKU0-30">
          <mxGeometry x="10" y="4" width="60" height="30" as="geometry" />
        </mxCell>
        <mxCell id="1RfGCbZmdzBSN7ZpFKU0-31" value="" style="group" vertex="1" connectable="0" parent="1">
          <mxGeometry x="190" y="170" width="100" height="40" as="geometry" />
        </mxCell>
        <mxCell id="1RfGCbZmdzBSN7ZpFKU0-2" value="" style="rounded=0;whiteSpace=wrap;html=1;" vertex="1" parent="1RfGCbZmdzBSN7ZpFKU0-31">
          <mxGeometry width="100" height="40" as="geometry" />
        </mxCell>
        <mxCell id="1RfGCbZmdzBSN7ZpFKU0-15" value="Sessione" style="text;html=1;align=center;verticalAlign=middle;whiteSpace=wrap;rounded=0;" vertex="1" parent="1RfGCbZmdzBSN7ZpFKU0-31">
          <mxGeometry x="20" y="5" width="60" height="30" as="geometry" />
        </mxCell>
        <mxCell id="1RfGCbZmdzBSN7ZpFKU0-33" value="" style="group" vertex="1" connectable="0" parent="1">
          <mxGeometry x="250" y="250" width="100" height="40" as="geometry" />
        </mxCell>
        <mxCell id="1RfGCbZmdzBSN7ZpFKU0-10" value="" style="rounded=0;whiteSpace=wrap;html=1;" vertex="1" parent="1RfGCbZmdzBSN7ZpFKU0-33">
          <mxGeometry width="100" height="40" as="geometry" />
        </mxCell>
        <mxCell id="1RfGCbZmdzBSN7ZpFKU0-32" value="Traduzione" style="text;html=1;align=center;verticalAlign=middle;resizable=0;points=[];autosize=1;strokeColor=none;fillColor=none;" vertex="1" parent="1RfGCbZmdzBSN7ZpFKU0-33">
          <mxGeometry x="10" y="5" width="80" height="30" as="geometry" />
        </mxCell>
        <mxCell id="1RfGCbZmdzBSN7ZpFKU0-34" value="Text" style="text;html=1;align=center;verticalAlign=middle;resizable=0;points=[];autosize=1;strokeColor=none;fillColor=none;" vertex="1" parent="1">
          <mxGeometry x="715" y="148" width="50" height="30" as="geometry" />
        </mxCell>
      </root>
    </mxGraphModel>
  </diagram>
</mxfile>
